# xmcd CD database file
#
# Track frame offsets:
#	150
#	13177
#	35438
#	61262
#	85243
#	110553
#	148063
#	167935
#	203459
#	230975
#
# Disc length: 3220 seconds
#
# Revision: 0
# Processed by: cddbd v1.5.2PL0 Copyright (c) Steve Scherf et al.
# Submitted via: CDex 1.51
#
DISCID=8a0c920a
DTITLE=Ron Carter - It's The Time
DYEAR=2007
DGENRE=Jazz
TTITLE0=It's The Time
TTITLE1=Eddie's Theme
TTITLE2=Mack The Knife
TTITLE3=Candle Light
TTITLE4=Softly As In A Morning Sunrise
TTITLE5=I Can't Get Started
TTITLE6=Super Strings
TTITLE7=My Ship
TTITLE8=Laverne Walk
TTITLE9=It's The Time
EXTD=YEAR: 2007
EXTT0=
EXTT1=
EXTT2=
EXTT3=
EXTT4=
EXTT5=
EXTT6=
EXTT7=
EXTT8=
EXTT9=
PLAYORDER=
